<?xml version="1.0" encoding="UTF-8" standalone="no"?>
<svg width="631px" height="123px" viewBox="0 0 631 123" version="1.1" xmlns="http://www.w3.org/2000/svg" xmlns:xlink="http://www.w3.org/1999/xlink" xmlns:sketch="http://www.bohemiancoding.com/sketch/ns">
    <!-- Generator: Sketch 3.4.4 (17249) - http://www.bohemiancoding.com/sketch -->
    <title>monsieurpress logo</title>
    <desc>Created with Sketch.</desc>
    <defs></defs>
    <g id="Page-1" stroke="none" stroke-width="1" fill="none" fill-rule="evenodd" sketch:type="MSPage">
        <g id="Group" sketch:type="MSLayerGroup" transform="translate(61.500000, 61.500000) rotate(-180.000000) translate(-61.500000, -61.500000) translate(0.000000, 0.000000)" fill="#464342">
            <path d="M8.708,61.26 C8.708,82.062 20.797,100.039 38.327,108.558 L13.258,39.872 C10.342,46.408 8.708,53.641 8.708,61.26 L8.708,61.26 Z" id="Shape" sketch:type="MSShapeGroup"></path>
            <path d="M96.74,58.608 C96.74,52.113 94.407,47.615 92.406,44.114 C89.742,39.785 87.245,36.119 87.245,31.79 C87.245,26.959 90.909,22.462 96.07,22.462 C96.303,22.462 96.524,22.491 96.751,22.504 C87.401,13.938 74.944,8.708 61.262,8.708 C42.902,8.708 26.749,18.128 17.352,32.396 C18.585,32.433 19.747,32.459 20.734,32.459 C26.231,32.459 34.74,31.792 34.74,31.792 C37.573,31.625 37.907,35.786 35.077,36.121 C35.077,36.121 32.23,36.456 29.062,36.622 L48.2,93.547 L59.701,59.054 L51.513,36.62 C48.683,36.454 46.002,36.119 46.002,36.119 C43.17,35.953 43.502,31.623 46.334,31.79 C46.334,31.79 55.013,32.457 60.177,32.457 C65.673,32.457 74.183,31.79 74.183,31.79 C77.018,31.623 77.351,35.784 74.52,36.119 C74.52,36.119 71.667,36.454 68.505,36.62 L87.497,93.114 L92.739,75.597 C95.011,68.328 96.74,63.107 96.74,58.608 L96.74,58.608 Z" id="Shape" sketch:type="MSShapeGroup"></path>
            <path d="M62.184,65.857 L46.416,111.676 C51.124,113.06 56.103,113.817 61.262,113.817 C67.382,113.817 73.251,112.759 78.714,110.838 C78.573,110.613 78.445,110.374 78.34,110.114 L62.184,65.857 L62.184,65.857 Z" id="Shape" sketch:type="MSShapeGroup"></path>
            <path d="M107.376,36.046 C107.602,37.72 107.73,39.517 107.73,41.45 C107.73,46.783 106.734,52.778 103.734,60.274 L87.681,106.687 C103.305,97.576 113.814,80.649 113.814,61.261 C113.815,52.124 111.481,43.532 107.376,36.046 L107.376,36.046 Z" id="Shape" sketch:type="MSShapeGroup"></path>
            <path d="M61.262,0 C27.483,0 0,27.481 0,61.26 C0,95.043 27.483,122.523 61.262,122.523 C95.04,122.523 122.527,95.043 122.527,61.26 C122.526,27.481 95.04,0 61.262,0 L61.262,0 Z M61.262,119.715 C29.032,119.715 2.809,93.492 2.809,61.26 C2.809,29.03 29.031,2.809 61.262,2.809 C93.491,2.809 119.712,29.03 119.712,61.26 C119.712,93.492 93.491,119.715 61.262,119.715 L61.262,119.715 Z" id="Shape" sketch:type="MSShapeGroup"></path>
        </g>
        <text id="MonsieurPress" sketch:type="MSTextLayer" font-family="Georgia" font-size="72" font-weight="normal" sketch:alignment="middle">
            <tspan x="142.763672" y="88" fill="#00749A">Monsieur</tspan>
            <tspan x="448.798828" y="88" fill="#464342">Press</tspan>
        </text>
    </g>
</svg>