<svg width="631" height="123" viewBox="0 0 631 123" xmlns="http://www.w3.org/2000/svg"><title>monsieurpress logo</title><g fill="none" fill-rule="evenodd"><g fill="#464342"><path d="M114.292 61.74c0-20.802-12.09-38.78-29.62-47.298l25.07 68.686a52.354 52.354 0 0 0 4.55-21.388zM26.26 64.392c0 6.495 2.333 10.993 4.334 14.494 2.664 4.33 5.16 7.995 5.16 12.324 0 4.83-3.663 9.328-8.824 9.328-.233 0-.454-.03-.68-.042 9.35 8.566 21.806 13.796 35.488 13.796 18.36 0 34.513-9.42 43.91-23.688a117.326 117.326 0 0 0-3.382-.063c-5.497 0-14.006.67-14.006.67-2.833.166-3.167-3.995-.337-4.33 0 0 2.847-.335 6.015-.5L74.8 29.452 63.3 63.946l8.187 22.434c2.83.166 5.51.5 5.51.5 2.833.167 2.5 4.497-.33 4.33 0 0-8.68-.667-13.844-.667-5.496 0-14.006.667-14.006.667-2.835.167-3.168-3.994-.337-4.33 0 0 2.853-.334 6.015-.5L35.503 29.886 30.26 47.403c-2.27 7.27-4 12.49-4 16.99z"/><path d="M60.816 57.143l15.768-45.82a52.552 52.552 0 0 0-14.846-2.14 52.5 52.5 0 0 0-17.452 2.98c.14.224.27.463.374.723l16.156 44.257zm-45.192 29.81a40.323 40.323 0 0 1-.354-5.403c0-5.333.996-11.328 3.996-18.824L35.32 16.313C19.694 25.423 9.185 42.35 9.185 61.74c0 9.136 2.333 17.728 6.438 25.214z"/><path d="M61.738 123C95.518 123 123 95.52 123 61.74 123 27.957 95.517.477 61.738.477 27.96.477.473 27.957.473 61.74.473 95.52 27.96 123 61.738 123zm0-119.715c32.23 0 58.453 26.223 58.453 58.455 0 32.23-26.22 58.45-58.45 58.45-32.23 0-58.45-26.22-58.45-58.45 0-32.232 26.22-58.455 58.45-58.455z"/></g><text font-family="Georgia" font-size="72"><tspan x="142.764" y="88" fill="#00749A">Monsieur</tspan> <tspan x="448.799" y="88" fill="#464342">Press</tspan></text></g></svg>