<svg width="247" height="29" viewBox="0 0 247 29" xmlns="http://www.w3.org/2000/svg"><title>MonsieurPress</title><g fill="none" fill-rule="evenodd"><circle fill="#3B1A01" cx="239" cy="24.3" r="4"/><path d="M153.168 1.08c.36-.048.786-.096 1.278-.144a50.69 50.69 0 0 1 1.548-.126 73.24 73.24 0 0 1 1.62-.09c.54-.024 1.062-.036 1.566-.036 1.32 0 2.574.132 3.762.396 1.188.264 2.232.72 3.132 1.368.9.648 1.614 1.506 2.142 2.574.528 1.068.792 2.406.792 4.014 0 1.68-.282 3.078-.846 4.194-.564 1.116-1.308 2.01-2.232 2.682a8.655 8.655 0 0 1-3.15 1.422 15.703 15.703 0 0 1-3.6.414c-.456 0-.858-.006-1.206-.018a13.834 13.834 0 0 1-1.134-.09V27a14.82 14.82 0 0 1-1.836.108c-.288 0-.594-.006-.918-.018a7.21 7.21 0 0 1-.918-.09V1.08zm3.672 13.356c.384.048.72.084 1.008.108.288.024.708.036 1.26.036.744 0 1.482-.078 2.214-.234a5.244 5.244 0 0 0 1.962-.846c.576-.408 1.038-.966 1.386-1.674.348-.708.522-1.626.522-2.754 0-.984-.15-1.812-.45-2.484-.3-.672-.714-1.212-1.242-1.62-.528-.408-1.164-.696-1.908-.864a10.94 10.94 0 0 0-2.412-.252c-.888 0-1.668.036-2.34.108v10.476zm16.416-5.904c.264-.048.516-.084.756-.108.24-.024.492-.036.756-.036s.528.012.792.036c.264.024.504.06.72.108.072.36.144.834.216 1.422.072.588.108 1.086.108 1.494a7.452 7.452 0 0 1 1.998-2.124c.828-.6 1.89-.9 3.186-.9.192 0 .39.006.594.018.204.012.378.03.522.054.048.216.084.444.108.684a7.604 7.604 0 0 1-.018 1.656c-.036.312-.078.612-.126.9a2.44 2.44 0 0 0-.594-.072h-.486a6.3 6.3 0 0 0-1.854.27 3.875 3.875 0 0 0-1.584.954c-.468.456-.84 1.08-1.116 1.872-.276.792-.414 1.812-.414 3.06V27a8.445 8.445 0 0 1-.882.108c-.324.024-.618.036-.882.036a12.034 12.034 0 0 1-1.8-.144V8.532zm15.516 10.116c.048 2.016.57 3.492 1.566 4.428.996.936 2.466 1.404 4.41 1.404 1.704 0 3.324-.3 4.86-.9.192.36.348.798.468 1.314a8.54 8.54 0 0 1 .216 1.53c-.792.336-1.662.588-2.61.756-.948.168-1.998.252-3.15.252-1.68 0-3.12-.234-4.32-.702-1.2-.468-2.19-1.128-2.97-1.98a7.845 7.845 0 0 1-1.71-3.024c-.36-1.164-.54-2.442-.54-3.834 0-1.368.174-2.646.522-3.834.348-1.188.882-2.22 1.602-3.096.72-.876 1.626-1.572 2.718-2.088s2.382-.774 3.87-.774c1.272 0 2.388.216 3.348.648a6.804 6.804 0 0 1 2.412 1.782c.648.756 1.14 1.656 1.476 2.7.336 1.044.504 2.178.504 3.402 0 .336-.012.69-.036 1.062-.024.372-.048.69-.072.954h-12.564zm9.144-2.664a6.79 6.79 0 0 0-.27-1.926 4.882 4.882 0 0 0-.792-1.602 3.854 3.854 0 0 0-1.332-1.098c-.54-.276-1.182-.414-1.926-.414-1.464 0-2.586.444-3.366 1.332-.78.888-1.254 2.124-1.422 3.708h9.108zm7.884 7.668a11.81 11.81 0 0 0 2.142.63c.78.156 1.554.234 2.322.234.552 0 1.08-.06 1.584-.18s.942-.3 1.314-.54c.372-.24.672-.534.9-.882.228-.348.342-.738.342-1.17 0-.48-.09-.876-.27-1.188a2.52 2.52 0 0 0-.72-.792 4.77 4.77 0 0 0-1.044-.558 19.573 19.573 0 0 0-1.278-.45l-1.26-.468c-1.536-.576-2.652-1.224-3.348-1.944-.696-.72-1.044-1.692-1.044-2.916 0-1.632.582-2.928 1.746-3.888 1.164-.96 2.874-1.44 5.13-1.44.936 0 1.854.09 2.754.27.9.18 1.686.39 2.358.63a8.68 8.68 0 0 1-.27 1.44 8.28 8.28 0 0 1-.486 1.332 18.6 18.6 0 0 0-1.89-.558 9.853 9.853 0 0 0-2.358-.27c-.888 0-1.674.156-2.358.468-.684.312-1.026.864-1.026 1.656 0 .408.084.756.252 1.044.168.288.396.534.684.738.288.204.618.378.99.522.372.144.774.288 1.206.432l1.584.54c.576.192 1.122.42 1.638.684.516.264.96.594 1.332.99.372.396.672.876.9 1.44.228.564.342 1.242.342 2.034 0 .888-.18 1.698-.54 2.43a5.35 5.35 0 0 1-1.53 1.872c-.66.516-1.458.918-2.394 1.206-.936.288-1.968.432-3.096.432-1.152 0-2.16-.078-3.024-.234a15.38 15.38 0 0 1-2.412-.63c.048-.48.15-.966.306-1.458s.33-.978.522-1.458zm15.444 0a11.81 11.81 0 0 0 2.142.63c.78.156 1.554.234 2.322.234.552 0 1.08-.06 1.584-.18s.942-.3 1.314-.54c.372-.24.672-.534.9-.882.228-.348.342-.738.342-1.17 0-.48-.09-.876-.27-1.188a2.52 2.52 0 0 0-.72-.792 4.77 4.77 0 0 0-1.044-.558 19.573 19.573 0 0 0-1.278-.45l-1.26-.468c-1.536-.576-2.652-1.224-3.348-1.944-.696-.72-1.044-1.692-1.044-2.916 0-1.632.582-2.928 1.746-3.888 1.164-.96 2.874-1.44 5.13-1.44.936 0 1.854.09 2.754.27.9.18 1.686.39 2.358.63a8.68 8.68 0 0 1-.27 1.44 8.28 8.28 0 0 1-.486 1.332 18.6 18.6 0 0 0-1.89-.558 9.853 9.853 0 0 0-2.358-.27c-.888 0-1.674.156-2.358.468-.684.312-1.026.864-1.026 1.656 0 .408.084.756.252 1.044.168.288.396.534.684.738.288.204.618.378.99.522.372.144.774.288 1.206.432l1.584.54c.576.192 1.122.42 1.638.684.516.264.96.594 1.332.99.372.396.672.876.9 1.44.228.564.342 1.242.342 2.034 0 .888-.18 1.698-.54 2.43a5.35 5.35 0 0 1-1.53 1.872c-.66.516-1.458.918-2.394 1.206-.936.288-1.968.432-3.096.432-1.152 0-2.16-.078-3.024-.234a15.38 15.38 0 0 1-2.412-.63c.048-.48.15-.966.306-1.458s.33-.978.522-1.458z" fill="#DB3C6E"/><path d="M1.888 1.116c.288-.048.618-.084.99-.108a16.525 16.525 0 0 1 2.16 0c.396.024.726.06.99.108l6.696 16.2 6.732-16.2c.24-.048.54-.084.9-.108.36-.024.708-.036 1.044-.036.312 0 .66.012 1.044.036.384.024.708.06.972.108L24.64 27c-.288.048-.582.084-.882.108a11.51 11.51 0 0 1-1.836 0c-.3-.024-.582-.06-.846-.108l-.828-20.124-6.336 14.76c-.48.072-.972.108-1.476.108-.456 0-.912-.036-1.368-.108L4.948 6.768 4.12 27a9.982 9.982 0 0 1-1.656.144c-.312 0-.612-.012-.9-.036A8.64 8.64 0 0 1 .736 27L1.888 1.116zm35.856 26.316c-1.44 0-2.7-.246-3.78-.738a7.51 7.51 0 0 1-2.7-2.034c-.72-.864-1.254-1.884-1.602-3.06-.348-1.176-.522-2.448-.522-3.816 0-1.368.174-2.64.522-3.816.348-1.176.882-2.196 1.602-3.06.72-.864 1.62-1.548 2.7-2.052s2.34-.756 3.78-.756 2.7.252 3.78.756c1.08.504 1.98 1.188 2.7 2.052.72.864 1.254 1.884 1.602 3.06.348 1.176.522 2.448.522 3.816 0 1.368-.174 2.64-.522 3.816-.348 1.176-.882 2.196-1.602 3.06a7.51 7.51 0 0 1-2.7 2.034c-1.08.492-2.34.738-3.78.738zm0-2.844c1.656 0 2.88-.6 3.672-1.8.792-1.2 1.188-2.868 1.188-5.004 0-2.136-.396-3.798-1.188-4.986-.792-1.188-2.016-1.782-3.672-1.782-1.656 0-2.874.594-3.654 1.782-.78 1.188-1.17 2.85-1.17 4.986 0 2.136.39 3.804 1.17 5.004.78 1.2 1.998 1.8 3.654 1.8zM51.028 8.532a9.21 9.21 0 0 1 .774-.108 8.16 8.16 0 0 1 1.512 0c.228.024.474.06.738.108.072.36.144.846.216 1.458.072.612.108 1.122.108 1.53a7.398 7.398 0 0 1 2.196-2.322A6.572 6.572 0 0 1 60.28 8.1c2.112 0 3.672.606 4.68 1.818 1.008 1.212 1.512 3.006 1.512 5.382V27a8.43 8.43 0 0 1-.9.108 12.77 12.77 0 0 1-.9.036c-.264 0-.558-.012-.882-.036a8.445 8.445 0 0 1-.882-.108V16.272c0-1.704-.264-2.958-.792-3.762-.528-.804-1.368-1.206-2.52-1.206a5.09 5.09 0 0 0-1.908.36c-.6.24-1.128.612-1.584 1.116-.456.504-.822 1.158-1.098 1.962-.276.804-.414 1.77-.414 2.898V27a8.445 8.445 0 0 1-.882.108c-.324.024-.618.036-.882.036s-.564-.012-.9-.036a8.43 8.43 0 0 1-.9-.108V8.532zm20.484 15.12a11.81 11.81 0 0 0 2.142.63c.78.156 1.554.234 2.322.234.552 0 1.08-.06 1.584-.18s.942-.3 1.314-.54c.372-.24.672-.534.9-.882.228-.348.342-.738.342-1.17 0-.48-.09-.876-.27-1.188a2.52 2.52 0 0 0-.72-.792 4.77 4.77 0 0 0-1.044-.558 19.573 19.573 0 0 0-1.278-.45l-1.26-.468c-1.536-.576-2.652-1.224-3.348-1.944-.696-.72-1.044-1.692-1.044-2.916 0-1.632.582-2.928 1.746-3.888 1.164-.96 2.874-1.44 5.13-1.44.936 0 1.854.09 2.754.27.9.18 1.686.39 2.358.63a8.68 8.68 0 0 1-.27 1.44 8.28 8.28 0 0 1-.486 1.332 18.6 18.6 0 0 0-1.89-.558 9.853 9.853 0 0 0-2.358-.27c-.888 0-1.674.156-2.358.468-.684.312-1.026.864-1.026 1.656 0 .408.084.756.252 1.044.168.288.396.534.684.738.288.204.618.378.99.522.372.144.774.288 1.206.432l1.584.54c.576.192 1.122.42 1.638.684.516.264.96.594 1.332.99.372.396.672.876.9 1.44.228.564.342 1.242.342 2.034 0 .888-.18 1.698-.54 2.43a5.35 5.35 0 0 1-1.53 1.872c-.66.516-1.458.918-2.394 1.206-.936.288-1.968.432-3.096.432-1.152 0-2.16-.078-3.024-.234a15.38 15.38 0 0 1-2.412-.63c.048-.48.15-.966.306-1.458s.33-.978.522-1.458zM89.296 11.34h-2.34a4.546 4.546 0 0 1-.108-.666 7.784 7.784 0 0 1 0-1.476c.024-.252.06-.474.108-.666h5.832V27a8.445 8.445 0 0 1-.882.108c-.324.024-.618.036-.882.036-.24 0-.522-.012-.846-.036a8.445 8.445 0 0 1-.882-.108V11.34zm-.792-6.876a7.29 7.29 0 0 1-.09-.936 25.493 25.493 0 0 1-.018-.9c0-.264.006-.564.018-.9.012-.336.042-.636.09-.9a14.33 14.33 0 0 1 1.944-.144c.264 0 .576.012.936.036.36.024.684.06.972.108.048.264.078.564.09.9.012.336.018.636.018.9s-.006.564-.018.9a7.29 7.29 0 0 1-.09.936c-.288.048-.606.084-.954.108-.348.024-.654.036-.918.036a14.75 14.75 0 0 1-1.98-.144zm12.744 14.184c.048 2.016.57 3.492 1.566 4.428.996.936 2.466 1.404 4.41 1.404 1.704 0 3.324-.3 4.86-.9.192.36.348.798.468 1.314a8.54 8.54 0 0 1 .216 1.53c-.792.336-1.662.588-2.61.756-.948.168-1.998.252-3.15.252-1.68 0-3.12-.234-4.32-.702-1.2-.468-2.19-1.128-2.97-1.98a7.845 7.845 0 0 1-1.71-3.024c-.36-1.164-.54-2.442-.54-3.834 0-1.368.174-2.646.522-3.834.348-1.188.882-2.22 1.602-3.096.72-.876 1.626-1.572 2.718-2.088s2.382-.774 3.87-.774c1.272 0 2.388.216 3.348.648a6.804 6.804 0 0 1 2.412 1.782c.648.756 1.14 1.656 1.476 2.7.336 1.044.504 2.178.504 3.402 0 .336-.012.69-.036 1.062-.024.372-.048.69-.072.954h-12.564zm9.144-2.664a6.79 6.79 0 0 0-.27-1.926 4.882 4.882 0 0 0-.792-1.602 3.854 3.854 0 0 0-1.332-1.098c-.54-.276-1.182-.414-1.926-.414-1.464 0-2.586.444-3.366 1.332-.78.888-1.254 2.124-1.422 3.708h9.108zm7.992-7.452a8.43 8.43 0 0 1 .9-.108c.336-.024.624-.036.864-.036.264 0 .564.012.9.036.336.024.636.06.9.108v10.116c0 1.152.108 2.106.324 2.862.216.756.54 1.35.972 1.782.432.432.96.732 1.584.9.624.168 1.344.252 2.16.252 1.224 0 2.268-.132 3.132-.396V8.532c.264-.048.558-.084.882-.108.324-.024.618-.036.882-.036s.558.012.882.036c.324.024.618.06.882.108v17.892c-.84.24-1.842.468-3.006.684-1.164.216-2.37.324-3.618.324a17.35 17.35 0 0 1-3.33-.306 6.344 6.344 0 0 1-2.754-1.242c-.792-.624-1.416-1.5-1.872-2.628-.456-1.128-.684-2.616-.684-4.464V8.532zm20.88 0c.264-.048.516-.084.756-.108.24-.024.492-.036.756-.036s.528.012.792.036c.264.024.504.06.72.108.072.36.144.834.216 1.422.072.588.108 1.086.108 1.494a7.452 7.452 0 0 1 1.998-2.124c.828-.6 1.89-.9 3.186-.9.192 0 .39.006.594.018.204.012.378.03.522.054.048.216.084.444.108.684a7.604 7.604 0 0 1-.018 1.656c-.036.312-.078.612-.126.9a2.44 2.44 0 0 0-.594-.072h-.486a6.3 6.3 0 0 0-1.854.27 3.875 3.875 0 0 0-1.584.954c-.468.456-.84 1.08-1.116 1.872-.276.792-.414 1.812-.414 3.06V27a8.445 8.445 0 0 1-.882.108c-.324.024-.618.036-.882.036a12.034 12.034 0 0 1-1.8-.144V8.532z" fill="#3B1A01"/></g></svg>