<?xml version="1.0" encoding="UTF-8" standalone="no"?>
<svg width="247px" height="29px" viewBox="0 0 247 29" version="1.1" xmlns="http://www.w3.org/2000/svg" xmlns:xlink="http://www.w3.org/1999/xlink" xmlns:sketch="http://www.bohemiancoding.com/sketch/ns">
    <!-- Generator: Sketch 3.4.4 (17249) - http://www.bohemiancoding.com/sketch -->
    <title>MonsieurPress</title>
    <desc>Created with Sketch.</desc>
    <defs></defs>
    <g id="Page-1" stroke="none" stroke-width="1" fill="none" fill-rule="evenodd" sketch:type="MSPage">
        <circle id="Oval-1" fill="#3B1A01" sketch:type="MSShapeGroup" cx="239" cy="24.2999878" r="4"></circle>
        <path d="M153.168,1.08 C153.528002,1.03199976 153.953998,0.98400024 154.446,0.936 C154.938002,0.88799976 155.453997,0.84600018 155.994,0.81 C156.534003,0.77399982 157.073997,0.74400012 157.614,0.72 C158.154003,0.69599988 158.675997,0.684 159.18,0.684 C160.500007,0.684 161.753994,0.81599868 162.942,1.08 C164.130006,1.34400132 165.173995,1.79999676 166.074,2.448 C166.974004,3.09600324 167.687997,3.95399466 168.216,5.022 C168.744003,6.09000534 169.008,7.42799196 169.008,9.036 C169.008,10.7160084 168.726003,12.1139944 168.162,13.23 C167.597997,14.3460056 166.854005,15.2399966 165.93,15.912 C165.005995,16.5840034 163.956006,17.0579986 162.78,17.334 C161.603994,17.6100014 160.404006,17.748 159.18,17.748 C158.723998,17.748 158.322002,17.7420001 157.974,17.73 C157.625998,17.7179999 157.248002,17.6880002 156.84,17.64 L156.84,27 C156.263997,27.0720004 155.652003,27.108 155.004,27.108 C154.715999,27.108 154.410002,27.1020001 154.086,27.09 C153.761998,27.0779999 153.456001,27.0480002 153.168,27 L153.168,1.08 Z M156.84,14.436 C157.224002,14.4840002 157.559999,14.5199999 157.848,14.544 C158.136001,14.5680001 158.555997,14.58 159.108,14.58 C159.852004,14.58 160.589996,14.5020008 161.322,14.346 C162.054004,14.1899992 162.707997,13.908002 163.284,13.5 C163.860003,13.091998 164.321998,12.5340035 164.67,11.826 C165.018002,11.1179965 165.192,10.2000056 165.192,9.072 C165.192,8.08799508 165.042002,7.26000336 164.742,6.588 C164.441999,5.91599664 164.028003,5.37600204 163.5,4.968 C162.971997,4.55999796 162.336004,4.27200084 161.592,4.104 C160.847996,3.93599916 160.044004,3.852 159.18,3.852 C158.291996,3.852 157.512003,3.88799964 156.84,3.96 L156.84,14.436 Z M173.256,8.532 C173.520001,8.48399976 173.771999,8.44800012 174.012,8.424 C174.252001,8.39999988 174.503999,8.388 174.768,8.388 C175.032001,8.388 175.295999,8.39999988 175.56,8.424 C175.824001,8.44800012 176.063999,8.48399976 176.28,8.532 C176.352,8.8920018 176.424,9.36599706 176.496,9.954 C176.568,10.5420029 176.604,11.039998 176.604,11.448 C177.108003,10.6319959 177.773996,9.924003 178.602,9.324 C179.430004,8.723997 180.491994,8.424 181.788,8.424 C181.980001,8.424 182.177999,8.42999994 182.382,8.442 C182.586001,8.45400006 182.759999,8.47199988 182.904,8.496 C182.952,8.71200108 182.988,8.9399988 183.012,9.18 C183.036,9.4200012 183.048,9.67199868 183.048,9.936 C183.048,10.2240014 183.03,10.5239984 182.994,10.836 C182.958,11.1480016 182.916,11.4479986 182.868,11.736 C182.675999,11.6879998 182.478001,11.664 182.274,11.664 L181.788,11.664 C181.139997,11.664 180.522003,11.7539991 179.934,11.934 C179.345997,12.1140009 178.818002,12.4319977 178.35,12.888 C177.881998,13.3440023 177.510001,13.967996 177.234,14.76 C176.957999,15.552004 176.82,16.5719938 176.82,17.82 L176.82,27 C176.555999,27.0480002 176.262002,27.0839999 175.938,27.108 C175.613998,27.1320001 175.320001,27.144 175.056,27.144 C174.791999,27.144 174.498002,27.1320001 174.174,27.108 C173.849998,27.0839999 173.544001,27.0480002 173.256,27 L173.256,8.532 Z M188.772,18.648 C188.82,20.6640101 189.341995,22.1399953 190.338,23.076 C191.334005,24.0120047 192.80399,24.48 194.748,24.48 C196.452009,24.48 198.071992,24.180003 199.608,23.58 C199.800001,23.9400018 199.955999,24.3779974 200.076,24.894 C200.196001,25.4100026 200.268,25.9199975 200.292,26.424 C199.499996,26.7600017 198.630005,27.0119992 197.682,27.18 C196.733995,27.3480008 195.684006,27.432 194.532,27.432 C192.851992,27.432 191.412006,27.1980023 190.212,26.73 C189.011994,26.2619977 188.022004,25.6020043 187.242,24.75 C186.461996,23.8979957 185.892002,22.8900058 185.532,21.726 C185.171998,20.5619942 184.992,19.284007 184.992,17.892 C184.992,16.5239932 185.165998,15.2460059 185.514,14.058 C185.862002,12.8699941 186.395996,11.8380044 187.116,10.962 C187.836004,10.0859956 188.741995,9.39000258 189.834,8.874 C190.926005,8.35799742 192.215993,8.1 193.704,8.1 C194.976006,8.1 196.091995,8.31599784 197.052,8.748 C198.012005,9.18000216 198.815997,9.77399622 199.464,10.53 C200.112003,11.2860038 200.603998,12.1859948 200.94,13.23 C201.276002,14.2740052 201.444,15.4079939 201.444,16.632 C201.444,16.9680017 201.432,17.3219981 201.408,17.694 C201.384,18.0660019 201.36,18.3839987 201.336,18.648 L188.772,18.648 Z M197.916,15.984 C197.916,15.3119966 197.826001,14.6700031 197.646,14.058 C197.465999,13.4459969 197.202002,12.9120023 196.854,12.456 C196.505998,11.9999977 196.062003,11.6340014 195.522,11.358 C194.981997,11.0819986 194.340004,10.944 193.596,10.944 C192.131993,10.944 191.010004,11.3879956 190.23,12.276 C189.449996,13.1640044 188.976001,14.3999921 188.808,15.984 L197.916,15.984 Z M205.8,23.652 C206.448003,23.9160013 207.161996,24.1259992 207.942,24.282 C208.722004,24.4380008 209.495996,24.516 210.264,24.516 C210.816003,24.516 211.343997,24.4560006 211.848,24.336 C212.352003,24.2159994 212.789998,24.0360012 213.162,23.796 C213.534002,23.5559988 213.833999,23.2620017 214.062,22.914 C214.290001,22.5659983 214.404,22.1760022 214.404,21.744 C214.404,21.2639976 214.314001,20.8680016 214.134,20.556 C213.953999,20.2439984 213.714001,19.9800011 213.414,19.764 C213.113998,19.5479989 212.766002,19.3620008 212.37,19.206 C211.973998,19.0499992 211.548002,18.9000007 211.092,18.756 L209.832,18.288 C208.295992,17.7119971 207.180003,17.0640036 206.484,16.344 C205.787997,15.6239964 205.44,14.6520061 205.44,13.428 C205.44,11.7959918 206.021994,10.5000048 207.186,9.54 C208.350006,8.5799952 210.059989,8.1 212.316,8.1 C213.252005,8.1 214.169996,8.1899991 215.07,8.37 C215.970004,8.5500009 216.755997,8.7599988 217.428,9 C217.38,9.4800024 217.290001,9.9599976 217.158,10.44 C217.025999,10.9200024 216.864001,11.363998 216.672,11.772 C216.143997,11.579999 215.514004,11.3940009 214.782,11.214 C214.049996,11.0339991 213.264004,10.944 212.424,10.944 C211.535996,10.944 210.750003,11.0999984 210.066,11.412 C209.381997,11.7240016 209.04,12.275996 209.04,13.068 C209.04,13.476002 209.123999,13.8239986 209.292,14.112 C209.460001,14.4000014 209.687999,14.645999 209.976,14.85 C210.264001,15.054001 210.593998,15.2279993 210.966,15.372 C211.338002,15.5160007 211.739998,15.6599993 212.172,15.804 L213.756,16.344 C214.332003,16.536001 214.877997,16.7639987 215.394,17.028 C215.910003,17.2920013 216.353998,17.621998 216.726,18.018 C217.098002,18.414002 217.397999,18.8939972 217.626,19.458 C217.854001,20.0220028 217.968,20.699996 217.968,21.492 C217.968,22.3800044 217.788002,23.1899963 217.428,23.922 C217.067998,24.6540037 216.558003,25.2779974 215.898,25.794 C215.237997,26.3100026 214.440005,26.7119986 213.504,27 C212.567995,27.2880014 211.536006,27.432 210.408,27.432 C209.255994,27.432 208.248004,27.3540008 207.384,27.198 C206.519996,27.0419992 205.716004,26.8320013 204.972,26.568 C205.02,26.0879976 205.121999,25.6020025 205.278,25.11 C205.434001,24.6179975 205.607999,24.1320024 205.8,23.652 L205.8,23.652 Z M221.244,23.652 C221.892003,23.9160013 222.605996,24.1259992 223.386,24.282 C224.166004,24.4380008 224.939996,24.516 225.708,24.516 C226.260003,24.516 226.787997,24.4560006 227.292,24.336 C227.796003,24.2159994 228.233998,24.0360012 228.606,23.796 C228.978002,23.5559988 229.277999,23.2620017 229.506,22.914 C229.734001,22.5659983 229.848,22.1760022 229.848,21.744 C229.848,21.2639976 229.758001,20.8680016 229.578,20.556 C229.397999,20.2439984 229.158002,19.9800011 228.858,19.764 C228.557998,19.5479989 228.210002,19.3620008 227.814,19.206 C227.417998,19.0499992 226.992002,18.9000007 226.536,18.756 L225.276,18.288 C223.739992,17.7119971 222.624003,17.0640036 221.928,16.344 C221.231997,15.6239964 220.884,14.6520061 220.884,13.428 C220.884,11.7959918 221.465994,10.5000048 222.63,9.54 C223.794006,8.5799952 225.503989,8.1 227.76,8.1 C228.696005,8.1 229.613995,8.1899991 230.514,8.37 C231.414004,8.5500009 232.199997,8.7599988 232.872,9 C232.824,9.4800024 232.734001,9.9599976 232.602,10.44 C232.469999,10.9200024 232.308001,11.363998 232.116,11.772 C231.587997,11.579999 230.958004,11.3940009 230.226,11.214 C229.493996,11.0339991 228.708004,10.944 227.868,10.944 C226.979996,10.944 226.194003,11.0999984 225.51,11.412 C224.825997,11.7240016 224.484,12.275996 224.484,13.068 C224.484,13.476002 224.567999,13.8239986 224.736,14.112 C224.904001,14.4000014 225.131999,14.645999 225.42,14.85 C225.708001,15.054001 226.037998,15.2279993 226.41,15.372 C226.782002,15.5160007 227.183998,15.6599993 227.616,15.804 L229.2,16.344 C229.776003,16.536001 230.321997,16.7639987 230.838,17.028 C231.354003,17.2920013 231.797998,17.621998 232.17,18.018 C232.542002,18.414002 232.841999,18.8939972 233.07,19.458 C233.298001,20.0220028 233.412,20.699996 233.412,21.492 C233.412,22.3800044 233.232002,23.1899963 232.872,23.922 C232.511998,24.6540037 232.002003,25.2779974 231.342,25.794 C230.681997,26.3100026 229.884005,26.7119986 228.948,27 C228.011995,27.2880014 226.980006,27.432 225.852,27.432 C224.699994,27.432 223.692004,27.3540008 222.828,27.198 C221.963996,27.0419992 221.160004,26.8320013 220.416,26.568 C220.464,26.0879976 220.565999,25.6020025 220.722,25.11 C220.878001,24.6179975 221.051999,24.1320024 221.244,23.652 L221.244,23.652 Z" id="press" fill="#DB3C6E" sketch:type="MSShapeGroup"></path>
        <path d="M1.888,1.116 C2.17600144,1.06799976 2.50599814,1.03200012 2.878,1.008 C3.25000186,0.98399988 3.60399832,0.972 3.94,0.972 C4.27600168,0.972 4.64199802,0.98399988 5.038,1.008 C5.43400198,1.03200012 5.76399868,1.06799976 6.028,1.116 L12.724,17.316 L19.456,1.116 C19.6960012,1.06799976 19.9959982,1.03200012 20.356,1.008 C20.7160018,0.98399988 21.0639983,0.972 21.4,0.972 C21.7120016,0.972 22.0599981,0.98399988 22.444,1.008 C22.8280019,1.03200012 23.1519987,1.06799976 23.416,1.116 L24.64,27 C24.3519986,27.0480002 24.0580015,27.0839999 23.758,27.108 C23.4579985,27.1320001 23.1520016,27.144 22.84,27.144 C22.5279984,27.144 22.2220015,27.1320001 21.922,27.108 C21.6219985,27.0839999 21.3400013,27.0480002 21.076,27 L20.248,6.876 L13.912,21.636 C13.4319976,21.7080004 12.9400025,21.744 12.436,21.744 C11.9799977,21.744 11.5240023,21.7080004 11.068,21.636 L4.948,6.768 L4.12,27 C3.85599868,27.0480002 3.58000144,27.0839999 3.292,27.108 C3.00399856,27.1320001 2.72800132,27.144 2.464,27.144 C2.15199844,27.144 1.85200144,27.1320001 1.564,27.108 C1.27599856,27.0839999 1.00000132,27.0480002 0.736,27 L1.888,1.116 Z M37.744,27.432 C36.3039928,27.432 35.0440054,27.1860025 33.964,26.694 C32.8839946,26.2019975 31.9840036,25.5240043 31.264,24.66 C30.5439964,23.7959957 30.0100017,22.7760059 29.662,21.6 C29.3139983,20.4239941 29.14,19.1520068 29.14,17.784 C29.14,16.4159932 29.3139983,15.1440059 29.662,13.968 C30.0100017,12.7919941 30.5439964,11.7720043 31.264,10.908 C31.9840036,10.0439957 32.8839946,9.36000252 33.964,8.856 C35.0440054,8.35199748 36.3039928,8.1 37.744,8.1 C39.1840072,8.1 40.4439946,8.35199748 41.524,8.856 C42.6040054,9.36000252 43.5039964,10.0439957 44.224,10.908 C44.9440036,11.7720043 45.4779983,12.7919941 45.826,13.968 C46.1740017,15.1440059 46.348,16.4159932 46.348,17.784 C46.348,19.1520068 46.1740017,20.4239941 45.826,21.6 C45.4779983,22.7760059 44.9440036,23.7959957 44.224,24.66 C43.5039964,25.5240043 42.6040054,26.2019975 41.524,26.694 C40.4439946,27.1860025 39.1840072,27.432 37.744,27.432 L37.744,27.432 Z M37.744,24.588 C39.4000083,24.588 40.623996,23.988006 41.416,22.788 C42.208004,21.587994 42.604,19.9200107 42.604,17.784 C42.604,15.6479893 42.208004,13.9860059 41.416,12.798 C40.623996,11.6099941 39.4000083,11.016 37.744,11.016 C36.0879917,11.016 34.8700039,11.6099941 34.09,12.798 C33.3099961,13.9860059 32.92,15.6479893 32.92,17.784 C32.92,19.9200107 33.3099961,21.587994 34.09,22.788 C34.8700039,23.988006 36.0879917,24.588 37.744,24.588 L37.744,24.588 Z M51.028,8.532 C51.2920013,8.48399976 51.5499987,8.44800012 51.802,8.424 C52.0540013,8.39999988 52.3119987,8.388 52.576,8.388 C52.8400013,8.388 53.0859989,8.39999988 53.314,8.424 C53.5420011,8.44800012 53.7879987,8.48399976 54.052,8.532 C54.1240004,8.8920018 54.1959996,9.37799694 54.268,9.99 C54.3400004,10.6020031 54.376,11.111998 54.376,11.52 C54.6160012,11.111998 54.9219981,10.704002 55.294,10.296 C55.6660019,9.88799796 56.0919976,9.52200162 56.572,9.198 C57.0520024,8.87399838 57.6039969,8.61000102 58.228,8.406 C58.8520031,8.20199898 59.5359963,8.1 60.28,8.1 C62.3920106,8.1 63.951995,8.70599394 64.96,9.918 C65.968005,11.1300061 66.472,12.9239881 66.472,15.3 L66.472,27 C66.2079987,27.0480002 65.9080017,27.0839999 65.572,27.108 C65.2359983,27.1320001 64.9360013,27.144 64.672,27.144 C64.4079987,27.144 64.1140016,27.1320001 63.79,27.108 C63.4659984,27.0839999 63.1720013,27.0480002 62.908,27 L62.908,16.272 C62.908,14.5679915 62.6440026,13.314004 62.116,12.51 C61.5879974,11.705996 60.7480058,11.304 59.596,11.304 C58.9239966,11.304 58.288003,11.4239988 57.688,11.664 C57.087997,11.9040012 56.5600023,12.2759975 56.104,12.78 C55.6479977,13.2840025 55.2820014,13.937996 55.006,14.742 C54.7299986,15.546004 54.592,16.5119944 54.592,17.64 L54.592,27 C54.3279987,27.0480002 54.0340016,27.0839999 53.71,27.108 C53.3859984,27.1320001 53.0920013,27.144 52.828,27.144 C52.5639987,27.144 52.2640017,27.1320001 51.928,27.108 C51.5919983,27.0839999 51.2920013,27.0480002 51.028,27 L51.028,8.532 Z M71.512,23.652 C72.1600032,23.9160013 72.8739961,24.1259992 73.654,24.282 C74.4340039,24.4380008 75.2079962,24.516 75.976,24.516 C76.5280028,24.516 77.0559975,24.4560006 77.56,24.336 C78.0640025,24.2159994 78.5019981,24.0360012 78.874,23.796 C79.2460019,23.5559988 79.5459989,23.2620017 79.774,22.914 C80.0020011,22.5659983 80.116,22.1760022 80.116,21.744 C80.116,21.2639976 80.0260009,20.8680016 79.846,20.556 C79.6659991,20.2439984 79.4260015,19.9800011 79.126,19.764 C78.8259985,19.5479989 78.478002,19.3620008 78.082,19.206 C77.685998,19.0499992 77.2600023,18.9000007 76.804,18.756 L75.544,18.288 C74.0079923,17.7119971 72.8920035,17.0640036 72.196,16.344 C71.4999965,15.6239964 71.152,14.6520061 71.152,13.428 C71.152,11.7959918 71.7339942,10.5000048 72.898,9.54 C74.0620058,8.5799952 75.7719887,8.1 78.028,8.1 C78.9640047,8.1 79.8819955,8.1899991 80.782,8.37 C81.6820045,8.5500009 82.4679966,8.7599988 83.14,9 C83.0919998,9.4800024 83.0020007,9.9599976 82.87,10.44 C82.7379993,10.9200024 82.576001,11.363998 82.384,11.772 C81.8559974,11.579999 81.2260037,11.3940009 80.494,11.214 C79.7619963,11.0339991 78.9760042,10.944 78.136,10.944 C77.2479956,10.944 76.4620034,11.0999984 75.778,11.412 C75.0939966,11.7240016 74.752,12.275996 74.752,13.068 C74.752,13.476002 74.8359992,13.8239986 75.004,14.112 C75.1720008,14.4000014 75.3999986,14.645999 75.688,14.85 C75.9760014,15.054001 76.3059981,15.2279993 76.678,15.372 C77.0500019,15.5160007 77.4519978,15.6599993 77.884,15.804 L79.468,16.344 C80.0440029,16.536001 80.5899974,16.7639987 81.106,17.028 C81.6220026,17.2920013 82.0659981,17.621998 82.438,18.018 C82.8100019,18.414002 83.1099989,18.8939972 83.338,19.458 C83.5660011,20.0220028 83.68,20.699996 83.68,21.492 C83.68,22.3800044 83.5000018,23.1899963 83.14,23.922 C82.7799982,24.6540037 82.2700033,25.2779974 81.61,25.794 C80.9499967,26.3100026 80.1520047,26.7119986 79.216,27 C78.2799953,27.2880014 77.2480056,27.432 76.12,27.432 C74.9679942,27.432 73.9600043,27.3540008 73.096,27.198 C72.2319957,27.0419992 71.4280037,26.8320013 70.684,26.568 C70.7320002,26.0879976 70.8339992,25.6020025 70.99,25.11 C71.1460008,24.6179975 71.319999,24.1320024 71.512,23.652 L71.512,23.652 Z M89.296,11.34 L86.956,11.34 C86.9079998,11.147999 86.8720001,10.9260013 86.848,10.674 C86.8239999,10.4219987 86.812,10.1760012 86.812,9.936 C86.812,9.6959988 86.8239999,9.45000126 86.848,9.198 C86.8720001,8.94599874 86.9079998,8.72400096 86.956,8.532 L92.788,8.532 L92.788,27 C92.5239987,27.0480002 92.2300016,27.0839999 91.906,27.108 C91.5819984,27.1320001 91.2880013,27.144 91.024,27.144 C90.7839988,27.144 90.5020016,27.1320001 90.178,27.108 C89.8539984,27.0839999 89.5600013,27.0480002 89.296,27 L89.296,11.34 Z M88.504,4.464 C88.4559998,4.17599856 88.4260001,3.86400168 88.414,3.528 C88.4019999,3.19199832 88.396,2.89200132 88.396,2.628 C88.396,2.36399868 88.4019999,2.06400168 88.414,1.728 C88.4260001,1.39199832 88.4559998,1.09200132 88.504,0.828 C88.8160016,0.77999976 89.1519982,0.74400012 89.512,0.72 C89.8720018,0.69599988 90.1839987,0.684 90.448,0.684 C90.7120013,0.684 91.0239982,0.69599988 91.384,0.72 C91.7440018,0.74400012 92.0679986,0.77999976 92.356,0.828 C92.4040002,1.09200132 92.4339999,1.39199832 92.446,1.728 C92.4580001,2.06400168 92.464,2.36399868 92.464,2.628 C92.464,2.89200132 92.4580001,3.19199832 92.446,3.528 C92.4339999,3.86400168 92.4040002,4.17599856 92.356,4.464 C92.0679986,4.51200024 91.7500017,4.54799988 91.402,4.572 C91.0539983,4.59600012 90.7480013,4.608 90.484,4.608 C90.1959986,4.608 89.8720018,4.59600012 89.512,4.572 C89.1519982,4.54799988 88.8160016,4.51200024 88.504,4.464 L88.504,4.464 Z M101.248,18.648 C101.296,20.6640101 101.817995,22.1399953 102.814,23.076 C103.810005,24.0120047 105.27999,24.48 107.224,24.48 C108.928009,24.48 110.547992,24.180003 112.084,23.58 C112.276001,23.9400018 112.431999,24.3779974 112.552,24.894 C112.672001,25.4100026 112.744,25.9199975 112.768,26.424 C111.975996,26.7600017 111.106005,27.0119992 110.158,27.18 C109.209995,27.3480008 108.160006,27.432 107.008,27.432 C105.327992,27.432 103.888006,27.1980023 102.688,26.73 C101.487994,26.2619977 100.498004,25.6020043 99.718,24.75 C98.9379961,23.8979957 98.3680018,22.8900058 98.008,21.726 C97.6479982,20.5619942 97.468,19.284007 97.468,17.892 C97.468,16.5239932 97.6419983,15.2460059 97.99,14.058 C98.3380017,12.8699941 98.8719964,11.8380044 99.592,10.962 C100.312004,10.0859956 101.217995,9.39000258 102.31,8.874 C103.402005,8.35799742 104.691993,8.1 106.18,8.1 C107.452006,8.1 108.567995,8.31599784 109.528,8.748 C110.488005,9.18000216 111.291997,9.77399622 111.94,10.53 C112.588003,11.2860038 113.079998,12.1859948 113.416,13.23 C113.752002,14.2740052 113.92,15.4079939 113.92,16.632 C113.92,16.9680017 113.908,17.3219981 113.884,17.694 C113.86,18.0660019 113.836,18.3839987 113.812,18.648 L101.248,18.648 Z M110.392,15.984 C110.392,15.3119966 110.302001,14.6700031 110.122,14.058 C109.941999,13.4459969 109.678002,12.9120023 109.33,12.456 C108.981998,11.9999977 108.538003,11.6340014 107.998,11.358 C107.457997,11.0819986 106.816004,10.944 106.072,10.944 C104.607993,10.944 103.486004,11.3879956 102.706,12.276 C101.925996,13.1640044 101.452001,14.3999921 101.284,15.984 L110.392,15.984 Z M118.384,8.532 C118.648001,8.48399976 118.947998,8.44800012 119.284,8.424 C119.620002,8.39999988 119.907999,8.388 120.148,8.388 C120.412001,8.388 120.711998,8.39999988 121.048,8.424 C121.384002,8.44800012 121.683999,8.48399976 121.948,8.532 L121.948,18.648 C121.948,19.8000058 122.055999,20.7539962 122.272,21.51 C122.488001,22.2660038 122.811998,22.8599978 123.244,23.292 C123.676002,23.7240022 124.203997,24.0239992 124.828,24.192 C125.452003,24.3600008 126.171996,24.444 126.988,24.444 C128.212006,24.444 129.255996,24.3120013 130.12,24.048 L130.12,8.532 C130.384001,8.48399976 130.677998,8.44800012 131.002,8.424 C131.326002,8.39999988 131.619999,8.388 131.884,8.388 C132.148001,8.388 132.441998,8.39999988 132.766,8.424 C133.090002,8.44800012 133.383999,8.48399976 133.648,8.532 L133.648,26.424 C132.807996,26.6640012 131.806006,26.8919989 130.642,27.108 C129.477994,27.3240011 128.272006,27.432 127.024,27.432 C125.847994,27.432 124.738005,27.330001 123.694,27.126 C122.649995,26.921999 121.732004,26.5080031 120.94,25.884 C120.147996,25.2599969 119.524002,24.3840056 119.068,23.256 C118.611998,22.1279944 118.384,20.6400092 118.384,18.792 L118.384,8.532 Z M139.264,8.532 C139.528001,8.48399976 139.779999,8.44800012 140.02,8.424 C140.260001,8.39999988 140.511999,8.388 140.776,8.388 C141.040001,8.388 141.303999,8.39999988 141.568,8.424 C141.832001,8.44800012 142.071999,8.48399976 142.288,8.532 C142.36,8.8920018 142.432,9.36599706 142.504,9.954 C142.576,10.5420029 142.612,11.039998 142.612,11.448 C143.116003,10.6319959 143.781996,9.924003 144.61,9.324 C145.438004,8.723997 146.499994,8.424 147.796,8.424 C147.988001,8.424 148.185999,8.42999994 148.39,8.442 C148.594001,8.45400006 148.767999,8.47199988 148.912,8.496 C148.96,8.71200108 148.996,8.9399988 149.02,9.18 C149.044,9.4200012 149.056,9.67199868 149.056,9.936 C149.056,10.2240014 149.038,10.5239984 149.002,10.836 C148.966,11.1480016 148.924,11.4479986 148.876,11.736 C148.683999,11.6879998 148.486001,11.664 148.282,11.664 L147.796,11.664 C147.147997,11.664 146.530003,11.7539991 145.942,11.934 C145.353997,12.1140009 144.826002,12.4319977 144.358,12.888 C143.889998,13.3440023 143.518001,13.967996 143.242,14.76 C142.965999,15.552004 142.828,16.5719938 142.828,17.82 L142.828,27 C142.563999,27.0480002 142.270002,27.0839999 141.946,27.108 C141.621998,27.1320001 141.328001,27.144 141.064,27.144 C140.799999,27.144 140.506002,27.1320001 140.182,27.108 C139.857998,27.0839999 139.552001,27.0480002 139.264,27 L139.264,8.532 Z" id="Monsieur" fill="#3B1A01" sketch:type="MSShapeGroup"></path>
    </g>
</svg>